<svg xmlns="http://www.w3.org/2000/svg" viewBox="0 0 56.25 37.5"><defs><style>.cls-1,.cls-2{fill:#e02127;}.cls-2{font-size:19.61px;font-family:MyriadPro-Regular, Myriad Pro;}.cls-3{letter-spacing:0.03em;}</style></defs><title>Asset 3</title><g id="Layer_2" data-name="Layer 2"><g id="Layer_1-2" data-name="Layer 1"><path class="cls-1" d="M48.7,5.24a1.22,1.22,0,0,0-.88-1.06c-.43-.17-.74-.47-.74-.83V1c0-.61.77-1.09,1.58-.95,3.21.53,5.61,2.64,5.61,5.15V15.55a1,1,0,0,0,.67.85,2,2,0,0,1,1.31,1.73v1.3a2,2,0,0,1-1.31,1.64,1,1,0,0,0-.67.95V32.33c0,2.51-2.4,4.62-5.61,5.15-.81.13-1.58-.34-1.58-.95V34.21a1,1,0,0,1,.74-.82,1.22,1.22,0,0,0,.88-1.06V22a4.47,4.47,0,0,1,1.52-3.24,4.43,4.43,0,0,1-1.52-3.23Z"/><path class="cls-1" d="M47.82,33.39a1.22,1.22,0,0,0,.88-1.06V22a4.42,4.42,0,0,1,1.46-3.17h6.09v.58a2,2,0,0,1-1.31,1.64,1,1,0,0,0-.67.95V32.33c0,2.51-2.4,4.62-5.61,5.15-.81.13-1.58-.34-1.58-.95V34.21A1,1,0,0,1,47.82,33.39Z"/><text class="cls-2" transform="translate(9.17 22.56) scale(1.18 1)">su<tspan class="cls-3" x="18.57" y="0">r</tspan><tspan x="25.57" y="0">f</tspan></text><path class="cls-1" d="M7.55,5.17a1.22,1.22,0,0,1,.88-1.06,1,1,0,0,0,.74-.82V1C9.17.36,8.4-.11,7.59,0,4.38.55,2,2.66,2,5.17V15.48a1,1,0,0,1-.67.85A2,2,0,0,0,0,18.07v1.29A2,2,0,0,0,1.31,21,1,1,0,0,1,2,22V32.26c0,2.51,2.4,4.62,5.61,5.15.81.14,1.58-.34,1.58-.95V34.15c0-.36-.31-.66-.74-.83a1.22,1.22,0,0,1-.88-1.06V22A4.43,4.43,0,0,0,6,18.72a4.47,4.47,0,0,0,1.52-3.24Z"/><path class="cls-1" d="M8.43,33.32a1.22,1.22,0,0,1-.88-1.06V22a4.44,4.44,0,0,0-1.46-3.17H0v.58A2,2,0,0,0,1.31,21,1,1,0,0,1,2,22V32.26c0,2.51,2.4,4.62,5.61,5.15.81.14,1.58-.34,1.58-.95V34.15C9.17,33.79,8.86,33.49,8.43,33.32Z"/></g></g></svg>